<svg width="168" height="145" viewBox="0 0 168 145" fill="none" xmlns="http://www.w3.org/2000/svg">
<rect x="14.3809" y="13.6631" width="46.0638" height="46.0638" fill="#303030"/>
<rect x="14.3809" y="13.6631" width="46.0638" height="46.0638" stroke="#D9D9D9" stroke-width="0.523453"/>
<rect x="16.7368" y="16.2803" width="41.3528" height="41.3528" stroke="white" stroke-width="0.523453"/>
<rect x="20.3999" y="19.9443" width="34.0244" height="34.0244" fill="white" stroke="black" stroke-width="0.523453"/>
<rect x="60.9683" y="13.6631" width="46.0638" height="46.0638" fill="#303030"/>
<rect x="60.9683" y="13.6631" width="46.0638" height="46.0638" stroke="#D9D9D9" stroke-width="0.523453"/>
<rect x="63.3232" y="16.2803" width="41.3528" height="41.3528" stroke="white" stroke-width="0.523453"/>
<rect x="66.9883" y="19.9443" width="34.0244" height="34.0244" fill="white" stroke="black" stroke-width="0.523453"/>
<rect x="107.555" y="13.6631" width="46.0638" height="46.0638" fill="#303030"/>
<rect x="107.555" y="13.6631" width="46.0638" height="46.0638" stroke="#D9D9D9" stroke-width="0.523453"/>
<rect x="109.911" y="16.2803" width="41.3528" height="41.3528" stroke="white" stroke-width="0.523453"/>
<rect x="113.576" y="19.9443" width="34.0244" height="34.0244" fill="white" stroke="black" stroke-width="0.523453"/>
<rect x="14.4092" y="60.25" width="46.3397" height="70.2134" fill="#303030"/>
<rect x="14.4092" y="60.25" width="46.3397" height="70.2134" stroke="#D9D9D9" stroke-width="0.523453"/>
<rect x="17.9468" y="63.9248" width="38.3818" height="63.1397" fill="white" stroke="black" stroke-width="0.523453"/>
<rect x="61.2725" y="60.25" width="46.3397" height="70.2134" fill="#303030"/>
<rect x="61.2725" y="60.25" width="46.3397" height="70.2134" stroke="#D9D9D9" stroke-width="0.523453"/>
<rect x="64.8101" y="63.9248" width="38.3818" height="63.1397" fill="white" stroke="black" stroke-width="0.523453"/>
<rect x="108.135" y="60.25" width="45.4555" height="70.2134" fill="#303030"/>
<rect x="108.135" y="60.25" width="45.4555" height="70.2134" stroke="#D9D9D9" stroke-width="0.523453"/>
<rect x="111.673" y="63.9248" width="38.3818" height="63.1397" fill="white" stroke="black" stroke-width="0.523453"/>
</svg>
